<?xml version="1.0" standalone="no"?>
<svg viewBox="0 0 200 200" xmlns="http://www.w3.org/2000/svg">
  <mask id="mask0" mask-type="alpha">
    <path fill="#F1C21B" d="M68.7,-20.2C77.1,3.6,63.8,36.5,43.2,49C22.6,61.5,-5.3,53.6,-26.1,37.9C-47,22.3,-60.9,-1,-55.4,-20.8C-49.9,-40.5,-24.9,-56.8,2.6,-57.6C30.1,-58.5,60.3,-43.9,68.7,-20.2Z" transform="translate(100 100)" />
  </mask>
  <g mask="url(#mask0)">
    <path fill="#F1C21B" d="M68.7,-20.2C77.1,3.6,63.8,36.5,43.2,49C22.6,61.5,-5.3,53.6,-26.1,37.9C-47,22.3,-60.9,-1,-55.4,-20.8C-49.9,-40.5,-24.9,-56.8,2.6,-57.6C30.1,-58.5,60.3,-43.9,68.7,-20.2Z" transform="translate(100 100)" />
    <image xlink:href=""/>
  </g>
</svg>
